<svg
   version="1.1"
   id="metara-mark-nav" class="metara-svg-logo"
   width="40"
   height="40"
   viewBox="120 130 360 360"
   xmlns="http://www.w3.org/2000/svg">
  <g>
      <path fill-rule="nonzero" fill="rgb(34.498596%, 44.699097%, 56.898499%)" fill-opacity="1" d="M 419.175781 309.792969 L 382.433594 275.121094 L 382.792969 225.726562 L 333.402344 226.085938 L 298.730469 190.90625 L 264.058594 226.085938 L 214.667969 225.726562 L 214.667969 274.972656 L 179.847656 309.792969 L 215.027344 344.460938 L 214.667969 393.855469 L 264.058594 393.496094 L 298.730469 428.675781 L 333.402344 393.496094 L 382.792969 393.855469 L 382.433594 344.460938 Z M 419.175781 309.792969 "/>
      <path fill-rule="nonzero" fill="rgb(34.498596%, 44.699097%, 56.898499%)" fill-opacity="1" d="M 419.175781 309.515625 L 382.433594 274.847656 L 382.792969 225.453125 L 333.402344 225.8125 L 298.730469 190.632812 L 264.058594 225.8125 L 214.667969 225.453125 L 214.667969 274.695312 L 179.847656 309.515625 L 215.027344 344.1875 L 214.667969 393.578125 L 264.058594 393.21875 L 298.730469 428.398438 L 333.402344 393.21875 L 382.792969 393.578125 L 382.433594 344.1875 Z M 419.175781 309.515625 "/>
      <path fill="none" stroke-width="1.913" stroke-linecap="butt" stroke-linejoin="miter" stroke="rgb(9.399414%, 22.698975%, 16.499329%)" stroke-opacity="1" stroke-miterlimit="10" d="M -0.000827767 0.00154874 L -32.452289 -30.62137 L -32.134882 -74.247644 L -75.757706 -73.930237 L -106.380625 -105.001666 L -137.003544 -73.930237 L -180.626368 -74.247644 L -180.626368 -30.752473 L -211.380389 0.00154874 L -180.30896 30.621017 L -180.626368 74.247291 L -137.003544 73.929884 L -106.380625 105.001313 L -75.757706 73.929884 L -32.134882 74.247291 L -32.452289 30.621017 Z M -0.000827767 0.00154874 " transform="matrix(1.13222, 0, 0, 1.13222, 419.176718, 309.791215)"/>
      <path fill="none" stroke-width="1.913" stroke-linecap="butt" stroke-linejoin="miter" stroke="rgb(9.399414%, 22.698975%, 16.499329%)" stroke-opacity="1" stroke-miterlimit="10" d="M -0.000827767 -0.00103879 L -32.452289 -30.620508 L -32.134882 -74.246782 L -75.757706 -73.929374 L -106.380625 -105.000803 L -137.003544 -73.929374 L -180.626368 -74.246782 L -180.626368 -30.755061 L -211.380389 -0.00103879 L -180.30896 30.62188 L -180.626368 74.244704 L -137.003544 73.927297 L -106.380625 104.998726 L -75.757706 73.927297 L -32.134882 74.244704 L -32.452289 30.62188 Z M -0.000827767 -0.00103879 " transform="matrix(1.13222, 0, 0, 1.13222, 419.176718, 309.516801)"/>
      <path fill-rule="nonzero" fill="rgb(94.898987%, 87.5%, 73.298645%)" fill-opacity="1" stroke-width="1.913" stroke-linecap="butt" stroke-linejoin="miter" stroke="rgb(9.399414%, 22.698975%, 16.499329%)" stroke-opacity="1" stroke-miterlimit="10" d="M 0.000489261 -0.00156557 L 34.390896 34.388842 L 34.390896 83.024633 L 0.000489261 117.415041 L -48.635302 117.415041 L -83.02571 83.024633 L -83.02571 34.388842 L -48.635302 -0.00156557 Z M 0.000489261 -0.00156557 " transform="matrix(1.13222, 0, 0, 1.13222, 325.936946, 243.986148)"/>
      <path fill-rule="nonzero" fill="rgb(94.898987%, 87.5%, 73.298645%)" fill-opacity="1" stroke-width="1.913" stroke-linecap="butt" stroke-linejoin="miter" stroke="rgb(9.399414%, 22.698975%, 16.499329%)" stroke-opacity="1" stroke-miterlimit="10" d="M 0.000489261 -0.000703017 L 34.390896 34.389704 L 34.390896 83.025496 L 0.000489261 117.415903 L -48.635302 117.415903 L -83.02571 83.025496 L -83.02571 34.389704 L -48.635302 -0.000703017 Z M 0.000489261 -0.000703017 " transform="matrix(1.13222, 0, 0, 1.13222, 325.936946, 243.711733)"/>
      <path fill-rule="nonzero" fill="rgb(95.698547%, 63.499451%, 34.899902%)" fill-opacity="1" stroke-width="1.913" stroke-linecap="butt" stroke-linejoin="miter" stroke="rgb(9.399414%, 22.698975%, 16.499329%)" stroke-opacity="1" stroke-miterlimit="10" d="M 0.000233585 -0.0000346558 L -27.527963 24.854349 L 0.000233585 49.705282 L -37.039836 47.814638 L -35.145741 84.854707 L -60.000125 57.326511 L -84.854508 84.854707 L -82.960414 47.814638 L -120.000483 49.705282 L -92.472287 24.854349 L -120.000483 -0.0000346558 L -82.960414 1.89061 L -84.854508 -35.14601 L -60.000125 -7.617813 L -35.145741 -35.14601 L -37.039836 1.89061 Z M 0.000233585 -0.0000346558 " transform="matrix(1.13222, 0, 0, 1.13222, 366.663798, 281.652383)"/>
      <path fill-rule="nonzero" fill="rgb(95.698547%, 63.499451%, 34.899902%)" fill-opacity="1" stroke-width="1.913" stroke-linecap="butt" stroke-linejoin="miter" stroke="rgb(9.399414%, 22.698975%, 16.499329%)" stroke-opacity="1" stroke-miterlimit="10" d="M 0.000233585 0.000827898 L -27.527963 24.851761 L 0.000233585 49.706145 L -37.039836 47.8155 L -35.145741 84.85212 L -60.000125 57.323923 L -84.854508 84.85212 L -82.960414 47.8155 L -120.000483 49.706145 L -92.472287 24.851761 L -120.000483 0.000827898 L -82.960414 1.891472 L -84.854508 -35.148597 L -60.000125 -7.620401 L -35.145741 -35.148597 L -37.039836 1.891472 Z M 0.000233585 0.000827898 " transform="matrix(1.13222, 0, 0, 1.13222, 366.663798, 281.377969)"/>
      <path fill="none" stroke-width="1.913" stroke-linecap="butt" stroke-linejoin="miter" stroke="rgb(9.399414%, 22.698975%, 16.499329%)" stroke-opacity="1" stroke-miterlimit="10" d="M -0.000953327 0.000857065 L 14.703292 35.50219 " transform="matrix(1.13222, 0, 0, 1.13222, 253.942486, 201.663092)"/>
      <path fill="none" stroke-width="1.913" stroke-linecap="butt" stroke-linejoin="miter" stroke="rgb(9.399414%, 22.698975%, 16.499329%)" stroke-opacity="1" stroke-miterlimit="10" d="M 0.000603764 0.000857065 L -14.703641 35.50219 " transform="matrix(1.13222, 0, 0, 1.13222, 343.518848, 201.663092)"/>
      <path fill="none" stroke-width="1.913" stroke-linecap="butt" stroke-linejoin="miter" stroke="rgb(9.399414%, 22.698975%, 16.499329%)" stroke-opacity="1" stroke-miterlimit="10" d="M 0.000466895 0.000720197 L -35.500866 14.704965 " transform="matrix(1.13222, 0, 0, 1.13222, 406.858846, 265.003091)"/>
      <path fill="none" stroke-width="1.913" stroke-linecap="butt" stroke-linejoin="miter" stroke="rgb(9.399414%, 22.698975%, 16.499329%)" stroke-opacity="1" stroke-miterlimit="10" d="M 0.000466895 -0.00107279 L -35.500866 -14.705318 " transform="matrix(1.13222, 0, 0, 1.13222, 406.858846, 354.57934)"/>
      <path fill="none" stroke-width="1.913" stroke-linecap="butt" stroke-linejoin="miter" stroke="rgb(9.399414%, 22.698975%, 16.499329%)" stroke-opacity="1" stroke-miterlimit="10" d="M 0.000603764 -0.00120966 L -14.703641 -35.502543 " transform="matrix(1.13222, 0, 0, 1.13222, 343.518848, 417.919338)"/>
      <path fill="none" stroke-width="1.913" stroke-linecap="butt" stroke-linejoin="miter" stroke="rgb(9.399414%, 22.698975%, 16.499329%)" stroke-opacity="1" stroke-miterlimit="10" d="M -0.00105333 -0.00130966 L 14.706642 -35.502643 " transform="matrix(1.13222, 0, 0, 1.13222, 253.942599, 417.919452)"/>
      <path fill="none" stroke-width="1.913" stroke-linecap="butt" stroke-linejoin="miter" stroke="rgb(9.399414%, 22.698975%, 16.499329%)" stroke-opacity="1" stroke-miterlimit="10" d="M -0.000816459 -0.00117279 L 35.500517 -14.705418 " transform="matrix(1.13222, 0, 0, 1.13222, 190.602487, 354.579453)"/>
      <path fill="none" stroke-width="1.913" stroke-linecap="butt" stroke-linejoin="miter" stroke="rgb(9.399414%, 22.698975%, 16.499329%)" stroke-opacity="1" stroke-miterlimit="10" d="M -0.000816459 0.000720197 L 35.500517 14.704965 " transform="matrix(1.13222, 0, 0, 1.13222, 190.602487, 265.003091)"/>
      <path fill="none" stroke-width="1.913" stroke-linecap="butt" stroke-linejoin="miter" stroke="rgb(9.399414%, 22.698975%, 16.499329%)" stroke-opacity="1" stroke-miterlimit="10" d="M -0.000953327 0.00171962 L 14.703292 35.499603 " transform="matrix(1.13222, 0, 0, 1.13222, 253.942486, 201.388678)"/>
      <path fill="none" stroke-width="1.913" stroke-linecap="butt" stroke-linejoin="miter" stroke="rgb(9.399414%, 22.698975%, 16.499329%)" stroke-opacity="1" stroke-miterlimit="10" d="M 0.000603764 0.00171962 L -14.703641 35.499603 " transform="matrix(1.13222, 0, 0, 1.13222, 343.518848, 201.388678)"/>
      <path fill="none" stroke-width="1.913" stroke-linecap="butt" stroke-linejoin="miter" stroke="rgb(9.399414%, 22.698975%, 16.499329%)" stroke-opacity="1" stroke-miterlimit="10" d="M 0.000466895 0.00158275 L -35.500866 14.705828 " transform="matrix(1.13222, 0, 0, 1.13222, 406.858846, 264.728677)"/>
      <path fill="none" stroke-width="1.913" stroke-linecap="butt" stroke-linejoin="miter" stroke="rgb(9.399414%, 22.698975%, 16.499329%)" stroke-opacity="1" stroke-miterlimit="10" d="M 0.000466895 -0.00021024 L -35.500866 -14.704455 " transform="matrix(1.13222, 0, 0, 1.13222, 406.858846, 354.304926)"/>
      <path fill="none" stroke-width="1.913" stroke-linecap="butt" stroke-linejoin="miter" stroke="rgb(9.399414%, 22.698975%, 16.499329%)" stroke-opacity="1" stroke-miterlimit="10" d="M 0.000603764 -0.000347109 L -14.703641 -35.50168 " transform="matrix(1.13222, 0, 0, 1.13222, 343.518848, 417.644924)"/>
      <path fill="none" stroke-width="1.913" stroke-linecap="butt" stroke-linejoin="miter" stroke="rgb(9.399414%, 22.698975%, 16.499329%)" stroke-opacity="1" stroke-miterlimit="10" d="M -0.00105333 -0.000447109 L 14.706642 -35.50178 " transform="matrix(1.13222, 0, 0, 1.13222, 253.942599, 417.645037)"/>
      <path fill="none" stroke-width="1.913" stroke-linecap="butt" stroke-linejoin="miter" stroke="rgb(9.399414%, 22.698975%, 16.499329%)" stroke-opacity="1" stroke-miterlimit="10" d="M -0.000816459 -0.00031024 L 35.500517 -14.704555 " transform="matrix(1.13222, 0, 0, 1.13222, 190.602487, 354.305039)"/>
      <path fill="none" stroke-width="1.913" stroke-linecap="butt" stroke-linejoin="miter" stroke="rgb(9.399414%, 22.698975%, 16.499329%)" stroke-opacity="1" stroke-miterlimit="10" d="M -0.000816459 0.00158275 L 35.500517 14.705828 " transform="matrix(1.13222, 0, 0, 1.13222, 190.602487, 264.728677)"/>
      <path fill="none" stroke-width="1.913" stroke-linecap="butt" stroke-linejoin="miter" stroke="rgb(9.399414%, 22.698975%, 16.499329%)" stroke-opacity="1" stroke-miterlimit="10" d="M 0.00109876 0.000257201 C 0.00109876 5.513487 -4.504707 9.984792 -10.062787 9.984792 C -15.620868 9.984792 -20.126674 5.513487 -20.126674 0.000257201 C -20.126674 -5.512972 -15.620868 -9.984277 -10.062787 -9.984277 C -4.504707 -9.984277 0.00109876 -5.512972 0.00109876 0.000257201 Z M 0.00109876 0.000257201 " transform="matrix(1.13222, 0, 0, 1.13222, 261.2761, 192.023146)"/>
      <path fill="none" stroke-width="1.913" stroke-linecap="butt" stroke-linejoin="miter" stroke="rgb(9.399414%, 22.698975%, 16.499329%)" stroke-opacity="1" stroke-miterlimit="10" d="M 0.000148587 0.000257201 C 0.000148587 5.513487 -4.505657 9.984792 -10.060288 9.984792 C -15.618368 9.984792 -20.124174 5.513487 -20.124174 0.000257201 C -20.124174 -5.512972 -15.618368 -9.984277 -10.060288 -9.984277 C -4.505657 -9.984277 0.000148587 -5.512972 0.000148587 0.000257201 Z M 0.000148587 0.000257201 " transform="matrix(1.13222, 0, 0, 1.13222, 360.152176, 192.023146)"/>
      <path fill="none" stroke-width="1.913" stroke-linecap="butt" stroke-linejoin="miter" stroke="rgb(9.399414%, 22.698975%, 16.499329%)" stroke-opacity="1" stroke-miterlimit="10" d="M -0.00160199 -0.00090455 C -0.00160199 5.512325 -4.503958 9.98363 -10.062038 9.98363 C -15.620119 9.98363 -20.125924 5.512325 -20.125924 -0.00090455 C -20.125924 -5.514134 -15.620119 -9.985439 -10.062038 -9.985439 C -4.503958 -9.985439 -0.00160199 -5.514134 -0.00160199 -0.00090455 Z M -0.00160199 -0.00090455 " transform="matrix(1.13222, 0, 0, 1.13222, 430.06822, 261.399462)"/>
      <path fill="none" stroke-width="1.913" stroke-linecap="butt" stroke-linejoin="miter" stroke="rgb(9.399414%, 22.698975%, 16.499329%)" stroke-opacity="1" stroke-miterlimit="10" d="M -0.00150199 -0.000720512 C -0.00150199 5.512509 -4.503858 9.983814 -10.061938 9.983814 C -15.620019 9.983814 -20.125824 5.512509 -20.125824 -0.000720512 C -20.125824 -5.51395 -15.620019 -9.985255 -10.061938 -9.985255 C -4.503858 -9.985255 -0.00150199 -5.51395 -0.00150199 -0.000720512 Z M -0.00150199 -0.000720512 " transform="matrix(1.13222, 0, 0, 1.13222, 430.068107, 359.512535)"/>
      <path fill="none" stroke-width="1.913" stroke-linecap="butt" stroke-linejoin="miter" stroke="rgb(9.399414%, 22.698975%, 16.499329%)" stroke-opacity="1" stroke-miterlimit="10" d="M 0.000148587 0.00146782 C 0.000148587 5.514697 -4.505657 9.986002 -10.060288 9.986002 C -15.618368 9.986002 -20.124174 5.514697 -20.124174 0.00146782 C -20.124174 -5.515212 -15.618368 -9.986517 -10.060288 -9.986517 C -4.505657 -9.986517 0.000148587 -5.515212 0.000148587 0.00146782 Z M 0.000148587 0.00146782 " transform="matrix(1.13222, 0, 0, 1.13222, 360.152176, 428.888963)"/>
      <path fill="none" stroke-width="1.913" stroke-linecap="butt" stroke-linejoin="miter" stroke="rgb(9.399414%, 22.698975%, 16.499329%)" stroke-opacity="1" stroke-miterlimit="10" d="M 0.00109876 0.00146782 C 0.00109876 5.514697 -4.504707 9.986002 -10.062787 9.986002 C -15.620868 9.986002 -20.126674 5.514697 -20.126674 0.00146782 C -20.126674 -5.515212 -15.620868 -9.986517 -10.062787 -9.986517 C -4.504707 -9.986517 0.00109876 -5.515212 0.00109876 0.00146782 Z M 0.00109876 0.00146782 " transform="matrix(1.13222, 0, 0, 1.13222, 261.2761, 428.888963)"/>
      <path fill="none" stroke-width="1.913" stroke-linecap="butt" stroke-linejoin="miter" stroke="rgb(9.399414%, 22.698975%, 16.499329%)" stroke-opacity="1" stroke-miterlimit="10" d="M -0.000700748 -0.000820512 C -0.000700748 5.512409 -4.506507 9.983714 -10.061137 9.983714 C -15.619217 9.983714 -20.125023 5.512409 -20.125023 -0.000820512 C -20.125023 -5.51405 -15.619217 -9.985355 -10.061137 -9.985355 C -4.506507 -9.985355 -0.000700748 -5.51405 -0.000700748 -0.000820512 Z M -0.000700748 -0.000820512 " transform="matrix(1.13222, 0, 0, 1.13222, 191.360168, 359.512648)"/>
      <path fill="none" stroke-width="1.913" stroke-linecap="butt" stroke-linejoin="miter" stroke="rgb(9.399414%, 22.698975%, 16.499329%)" stroke-opacity="1" stroke-miterlimit="10" d="M -0.000700748 -0.00090455 C -0.000700748 5.512325 -4.506507 9.98363 -10.061137 9.98363 C -15.619217 9.98363 -20.125023 5.512325 -20.125023 -0.00090455 C -20.125023 -5.514134 -15.619217 -9.985439 -10.061137 -9.985439 C -4.506507 -9.985439 -0.000700748 -5.514134 -0.000700748 -0.00090455 Z M -0.000700748 -0.00090455 " transform="matrix(1.13222, 0, 0, 1.13222, 191.360168, 261.399462)"/>
      <path fill="none" stroke-width="1.913" stroke-linecap="butt" stroke-linejoin="miter" stroke="rgb(9.399414%, 22.698975%, 16.499329%)" stroke-opacity="1" stroke-miterlimit="10" d="M 0.00109876 0.00111975 C 0.00109876 5.514349 -4.504707 9.985654 -10.062787 9.985654 C -15.620868 9.985654 -20.126674 5.514349 -20.126674 0.00111975 C -20.126674 -5.51556 -15.620868 -9.983415 -10.062787 -9.983415 C -4.504707 -9.983415 0.00109876 -5.51556 0.00109876 0.00111975 Z M 0.00109876 0.00111975 " transform="matrix(1.13222, 0, 0, 1.13222, 261.2761, 191.748732)"/>
      <path fill="none" stroke-width="1.913" stroke-linecap="butt" stroke-linejoin="miter" stroke="rgb(9.399414%, 22.698975%, 16.499329%)" stroke-opacity="1" stroke-miterlimit="10" d="M 0.000148587 0.00111975 C 0.000148587 5.514349 -4.505657 9.985654 -10.060288 9.985654 C -15.618368 9.985654 -20.124174 5.514349 -20.124174 0.00111975 C -20.124174 -5.51556 -15.618368 -9.983415 -10.060288 -9.983415 C -4.505657 -9.983415 0.000148587 -5.51556 0.000148587 0.00111975 Z M 0.000148587 0.00111975 " transform="matrix(1.13222, 0, 0, 1.13222, 360.152176, 191.748732)"/>
      <path fill="none" stroke-width="1.913" stroke-linecap="butt" stroke-linejoin="miter" stroke="rgb(9.399414%, 22.698975%, 16.499329%)" stroke-opacity="1" stroke-miterlimit="10" d="M -0.00160199 -0.0000419968 C -0.00160199 5.513187 -4.503958 9.984492 -10.062038 9.984492 C -15.620119 9.984492 -20.125924 5.513187 -20.125924 -0.0000419968 C -20.125924 -5.513271 -15.620119 -9.984576 -10.062038 -9.984576 C -4.503958 -9.984576 -0.00160199 -5.513271 -0.00160199 -0.0000419968 Z M -0.00160199 -0.0000419968 " transform="matrix(1.13222, 0, 0, 1.13222, 430.06822, 261.125048)"/>
      <path fill="none" stroke-width="1.913" stroke-linecap="butt" stroke-linejoin="miter" stroke="rgb(9.399414%, 22.698975%, 16.499329%)" stroke-opacity="1" stroke-miterlimit="10" d="M -0.00150199 0.000142041 C -0.00150199 5.513371 -4.503858 9.984676 -10.061938 9.984676 C -15.620019 9.984676 -20.125824 5.513371 -20.125824 0.000142041 C -20.125824 -5.513087 -15.620019 -9.984392 -10.061938 -9.984392 C -4.503858 -9.984392 -0.00150199 -5.513087 -0.00150199 0.000142041 Z M -0.00150199 0.000142041 " transform="matrix(1.13222, 0, 0, 1.13222, 430.068107, 359.23812)"/>
      <path fill="none" stroke-width="1.913" stroke-linecap="butt" stroke-linejoin="miter" stroke="rgb(9.399414%, 22.698975%, 16.499329%)" stroke-opacity="1" stroke-miterlimit="10" d="M 0.000148587 -0.00111971 C 0.000148587 5.51556 -4.505657 9.983415 -10.060288 9.983415 C -15.618368 9.983415 -20.124174 5.51556 -20.124174 -0.00111971 C -20.124174 -5.514349 -15.618368 -9.985654 -10.060288 -9.985654 C -4.505657 -9.985654 0.000148587 -5.514349 0.000148587 -0.00111971 Z M 0.000148587 -0.00111971 " transform="matrix(1.13222, 0, 0, 1.13222, 360.152176, 428.614549)"/>
      <path fill="none" stroke-width="1.913" stroke-linecap="butt" stroke-linejoin="miter" stroke="rgb(9.399414%, 22.698975%, 16.499329%)" stroke-opacity="1" stroke-miterlimit="10" d="M 0.00109876 -0.00111971 C 0.00109876 5.51556 -4.504707 9.983415 -10.062787 9.983415 C -15.620868 9.983415 -20.126674 5.51556 -20.126674 -0.00111971 C -20.126674 -5.514349 -15.620868 -9.985654 -10.062787 -9.985654 C -4.504707 -9.985654 0.00109876 -5.514349 0.00109876 -0.00111971 Z M 0.00109876 -0.00111971 " transform="matrix(1.13222, 0, 0, 1.13222, 261.2761, 428.614549)"/>
      <path fill="none" stroke-width="1.913" stroke-linecap="butt" stroke-linejoin="miter" stroke="rgb(9.399414%, 22.698975%, 16.499329%)" stroke-opacity="1" stroke-miterlimit="10" d="M -0.000700748 0.0000420409 C -0.000700748 5.513271 -4.506507 9.984576 -10.061137 9.984576 C -15.619217 9.984576 -20.125023 5.513271 -20.125023 0.0000420409 C -20.125023 -5.513187 -15.619217 -9.984492 -10.061137 -9.984492 C -4.506507 -9.984492 -0.000700748 -5.513187 -0.000700748 0.0000420409 Z M -0.000700748 0.0000420409 " transform="matrix(1.13222, 0, 0, 1.13222, 191.360168, 359.238234)"/>
      <path fill="none" stroke-width="1.913" stroke-linecap="butt" stroke-linejoin="miter" stroke="rgb(9.399414%, 22.698975%, 16.499329%)" stroke-opacity="1" stroke-miterlimit="10" d="M -0.000700748 -0.0000419968 C -0.000700748 5.513187 -4.506507 9.984492 -10.061137 9.984492 C -15.619217 9.984492 -20.125023 5.513187 -20.125023 -0.0000419968 C -20.125023 -5.513271 -15.619217 -9.984576 -10.061137 -9.984576 C -4.506507 -9.984576 -0.000700748 -5.513271 -0.000700748 -0.0000419968 Z M -0.000700748 -0.0000419968 " transform="matrix(1.13222, 0, 0, 1.13222, 191.360168, 261.125048)"/>
  </g>
</svg>